ffmpeg version 4.2.7-0ubuntu0.1 Copyright (c) 2000-2022 the FFmpeg developers
  built with gcc 9 (Ubuntu 9.4.0-1ubuntu1~20.04.1)
  configuration: --prefix=/usr --extra-version=0ubuntu0.1 --toolchain=hardened --libdir=/usr/lib/x86_64-linux-gnu --incdir=/usr/include/x86_64-linux-gnu --arch=amd64 --enable-gpl --disable-stripping --enable-avresample --disable-filter=resample --enable-avisynth --enable-gnutls --enable-ladspa --enable-libaom --enable-libass --enable-libbluray --enable-libbs2b --enable-libcaca --enable-libcdio --enable-libcodec2 --enable-libflite --enable-libfontconfig --enable-libfreetype --enable-libfribidi --enable-libgme --enable-libgsm --enable-libjack --enable-libmp3lame --enable-libmysofa --enable-libopenjpeg --enable-libopenmpt --enable-libopus --enable-libpulse --enable-librsvg --enable-librubberband --enable-libshine --enable-libsnappy --enable-libsoxr --enable-libspeex --enable-libssh --enable-libtheora --enable-libtwolame --enable-libvidstab --enable-libvorbis --enable-libvpx --enable-libwavpack --enable-libwebp --enable-libx265 --enable-libxml2 --enable-libxvid --enable-libzmq --enable-libzvbi --enable-lv2 --enable-omx --enable-openal --enable-opencl --enable-opengl --enable-sdl2 --enable-libdc1394 --enable-libdrm --enable-libiec61883 --enable-nvenc --enable-chromaprint --enable-frei0r --enable-libx264 --enable-shared
  libavutil      56. 31.100 / 56. 31.100
  libavcodec     58. 54.100 / 58. 54.100
  libavformat    58. 29.100 / 58. 29.100
  libavdevice    58.  8.100 / 58.  8.100
  libavfilter     7. 57.100 /  7. 57.100
  libavresample   4.  0.  0 /  4.  0.  0
  libswscale      5.  5.100 /  5.  5.100
  libswresample   3.  5.100 /  3.  5.100
  libpostproc    55.  5.100 / 55.  5.100
Routing option strict to both codec and muxer layer
[mov,mp4,m4a,3gp,3g2,mj2 @ 0x5623b8357400] stream 0, timescale not set
[h264 @ 0x5623b835ac40] Reinit context to 1280x720, pix_fmt: yuv420p
Input #0, mov,mp4,m4a,3gp,3g2,mj2, from '/var/www/html/project/media/video/original/incendio_.mov':
  Metadata:
    major_brand     : qt  
    minor_version   : 0
    compatible_brands: qt  
    creation_time   : 2023-04-04T12:38:47.000000Z
    keywords        : 21-12-22
    title           : incendio 
    artist          : Michele
    com.apple.quicktime.author: Michele
    com.apple.quicktime.keywords: 21-12-22
    com.apple.quicktime.displayname: incendio 
    com.apple.quicktime.title: incendio 
    com.apple.quicktime.description: This video is about incendio 
  Duration: 00:00:27.87, start: 0.000000, bitrate: 10081 kb/s
    Stream #0:0(eng): Audio: aac (LC) (mp4a / 0x6134706D), 48000 Hz, stereo, fltp, 107 kb/s (default)
    Metadata:
      creation_time   : 2023-04-04T12:38:47.000000Z
      handler_name    : Core Media Audio
    Stream #0:1(und): Video: h264 (High), 1 reference frame (avc1 / 0x31637661), yuv420p(tv, bt709, progressive, left), 1280x720 [SAR 1:1 DAR 16:9], 9943 kb/s, 30 fps, 30 tbr, 30k tbn, 60k tbc (default)
    Metadata:
      creation_time   : 2023-04-04T12:38:47.000000Z
      handler_name    : Core Media Video
      encoder         : H.264
      timecode        : 00:00:00:00
    Stream #0:2(und): Data: none (tmcd / 0x64636D74), 0 kb/s (default)
    Metadata:
      creation_time   : 2023-04-04T12:38:47.000000Z
      handler_name    : Core Media Time Code
      timecode        : 00:00:00:00
    Stream #0:3: Video: mjpeg (Progressive), 1 reference frame, yuvj420p(pc, bt470bg/unknown/unknown, center), 1280x720 [SAR 72:72 DAR 16:9], 90k tbr, 90k tbn, 90k tbc (attached pic)
Input #1, png_pipe, from '/var/www/html/project/static/images/templates/logo_vertical.png':
  Duration: N/A, bitrate: N/A
    Stream #1:0: Video: png, 1 reference frame, rgba(pc), 1920x1080 [SAR 2835:2835 DAR 16:9], 25 tbr, 25 tbn, 25 tbc
[Parsed_scale_1 @ 0x5623b83fca00] w:1280 h:720 flags:'bilinear' interl:0
[Parsed_scale_4 @ 0x5623b83d0a40] w:-1 h:720 flags:'bilinear' interl:0
[Parsed_scale_6 @ 0x5623b83d3a40] w:1280 h:720 flags:'bilinear' interl:0
Stream mapping:
  Stream #0:1 (h264) -> split (graph 0)
  Stream #1:0 (png) -> scale (graph 0)
  overlay (graph 0) -> Stream #0:0 (libx264)
  Stream #0:0 -> #0:1 (aac (native) -> aac (native))
Press [q] to stop, [?] for help
[graph_1_in_0_0 @ 0x5623b874ed80] tb:1/48000 samplefmt:fltp samplerate:48000 chlayout:0x3
[h264 @ 0x5623b83d6e40] Reinit context to 1280x720, pix_fmt: yuv420p
[Parsed_scale_1 @ 0x5623b8d6b740] w:1280 h:720 flags:'bilinear' interl:0
[Parsed_scale_4 @ 0x5623b8d72d80] w:-1 h:720 flags:'bilinear' interl:0
[Parsed_scale_6 @ 0x5623b8d74500] w:1280 h:720 flags:'bilinear' interl:0
[graph 0 input from stream 0:1 @ 0x5623b8d77900] w:1280 h:720 pixfmt:yuv420p tb:1/30000 fr:30/1 sar:1/1 sws_param:flags=2
[graph 0 input from stream 1:0 @ 0x5623b8d788c0] w:1920 h:1080 pixfmt:rgba tb:1/25 fr:25/1 sar:2835/2835 sws_param:flags=2
[Parsed_scale_1 @ 0x5623b8d6b740] w:1280 h:720 fmt:yuv420p sar:1/1 -> w:1280 h:720 fmt:yuv420p sar:1/1 flags:0x2
[Parsed_boxblur_2 @ 0x5623b8d6e000] luma_radius:36 luma_power:1 chroma_radius:18 chroma_power:1 alpha_radius:36 alpha_power:1 w:1280 chroma_w:640 h:720 chroma_h:360
[Parsed_setsar_3 @ 0x5623b8d72040] w:1280 h:720 sar:1/1 dar:16/9 -> sar:1/1 dar:16/9
[Parsed_scale_4 @ 0x5623b8d72d80] w:1280 h:720 fmt:yuv420p sar:1/1 -> w:1280 h:720 fmt:yuva420p sar:1/1 flags:0x2
[Parsed_setsar_5 @ 0x5623b8d73880] w:1280 h:720 sar:1/1 dar:16/9 -> sar:1/1 dar:16/9
[Parsed_overlay_8 @ 0x5623b8d75bc0] main w:1280 h:720 fmt:yuv420p overlay w:1280 h:720 fmt:yuva420p
[Parsed_overlay_8 @ 0x5623b8d75bc0] [framesync @ 0x5623b8d75ce8] Selected 1/30000 time base
[Parsed_overlay_8 @ 0x5623b8d75bc0] [framesync @ 0x5623b8d75ce8] Sync level 2
[Parsed_scale_6 @ 0x5623b8d74500] w:1920 h:1080 fmt:rgba sar:2835/2835 -> w:1280 h:720 fmt:yuva420p sar:1/1 flags:0x2
[Parsed_setsar_7 @ 0x5623b8d74fc0] w:1280 h:720 sar:1/1 dar:16/9 -> sar:1/1 dar:16/9
[Parsed_overlay_9 @ 0x5623b8d76b00] main w:1280 h:720 fmt:yuv420p overlay w:1280 h:720 fmt:yuva420p
[Parsed_overlay_9 @ 0x5623b8d76b00] [framesync @ 0x5623b8d76c28] Selected 1/30000 time base
[Parsed_overlay_9 @ 0x5623b8d76b00] [framesync @ 0x5623b8d76c28] Sync level 2
[libx264 @ 0x5623b83ab3c0] using SAR=1/1
[libx264 @ 0x5623b83ab3c0] using cpu capabilities: MMX2 SSE2Fast SSSE3 SSE4.2 AVX FMA3 BMI2 AVX2
[libx264 @ 0x5623b83ab3c0] profile High, level 3.1
[libx264 @ 0x5623b83ab3c0] 264 - core 155 r2917 0a84d98 - H.264/MPEG-4 AVC codec - Copyleft 2003-2018 - http://www.videolan.org/x264.html - options: cabac=1 ref=1 deblock=1:0:0 analyse=0x3:0x113 me=hex subme=2 psy=1 psy_rd=1.00:0.00 mixed_ref=0 me_range=16 chroma_me=1 trellis=0 8x8dct=1 cqm=0 deadzone=21,11 fast_pskip=1 chroma_qp_offset=0 threads=22 lookahead_threads=5 sliced_threads=0 nr=0 decimate=1 interlaced=0 bluray_compat=0 constrained_intra=0 bframes=3 b_pyramid=2 b_adapt=1 b_bias=0 direct=1 weightb=1 open_gop=0 weightp=1 keyint=250 keyint_min=25 scenecut=40 intra_refresh=0 rc_lookahead=10 rc=crf mbtree=1 crf=18.0 qcomp=0.60 qpmin=0 qpmax=69 qpstep=4 ip_ratio=1.40 aq=1:1.00
Output #0, mp4, to '/var/www/html/project/media/video/watermarks/incendio_.mp4':
  Metadata:
    major_brand     : qt  
    minor_version   : 0
    compatible_brands: qt  
    com.apple.quicktime.description: This video is about incendio 
    keywords        : 21-12-22
    title           : incendio 
    artist          : Michele
    com.apple.quicktime.author: Michele
    com.apple.quicktime.keywords: 21-12-22
    com.apple.quicktime.displayname: incendio 
    com.apple.quicktime.title: incendio 
    encoder         : Lavf58.29.100
    Stream #0:0: Video: h264 (libx264), 1 reference frame (avc1 / 0x31637661), yuv420p, 1280x720 [SAR 1:1 DAR 16:9], q=-1--1, 30 fps, 15360 tbn, 30 tbc (default)
    Metadata:
      encoder         : Lavc58.54.100 libx264
    Side data:
      cpb: bitrate max/min/avg: 0/0/0 buffer size: 0 vbv_delay: -1
    Stream #0:1(eng): Audio: aac (LC) (mp4a / 0x6134706D), 48000 Hz, stereo, fltp, delay 1024, 128 kb/s (default)
    Metadata:
      creation_time   : 2023-04-04T12:38:47.000000Z
      handler_name    : Core Media Audio
      encoder         : Lavc58.54.100 aac
[Parsed_overlay_8 @ 0x5623b8d75bc0] [framesync @ 0x5623b8d75ce8] Sync level 1
[Parsed_overlay_8 @ 0x5623b8d75bc0] [framesync @ 0x5623b8d75ce8] Sync level 0
[Parsed_overlay_9 @ 0x5623b8d76b00] [framesync @ 0x5623b8d76c28] Sync level 0
No more output streams to write to, finishing.
frame=  836 fps= 46 q=-1.0 Lsize=   10664kB time=00:00:27.88 bitrate=3133.0kbits/s speed=1.52x    
[AVIOContext @ 0x5623b8357280] Statistics: 0 seeks, 36 writeouts
video:10194kB audio:439kB subtitle:0kB other streams:0kB global headers:0kB muxing overhead: 0.288139%
Input file #0 (/var/www/html/project/media/video/original/incendio_.mov):
  Input stream #0:0 (audio): 1309 packets read (376704 bytes); 1307 frames decoded (1338304 samples); 
  Input stream #0:1 (video): 836 packets read (34636417 bytes); 836 frames decoded; 
  Input stream #0:2 (data): 0 packets read (0 bytes); 
  Input stream #0:3 (video): 1 packets read (84156 bytes); 
  Total: 2146 packets (35097277 bytes) demuxed
Input file #1 (/var/www/html/project/static/images/templates/logo_vertical.png):
  Input stream #1:0 (video): 1 packets read (93903 bytes); 1 frames decoded; 
  Total: 1 packets (93903 bytes) demuxed
Output file #0 (/var/www/html/project/media/video/watermarks/incendio_.mp4):
  Output stream #0:0 (video): 836 frames encoded; 836 packets muxed (10438616 bytes); 
  Output stream #0:1 (audio): 1307 frames encoded (1338304 samples); 1308 packets muxed (449534 bytes); 
  Total: 2144 packets (10888150 bytes) muxed
[AVIOContext @ 0x5623b83aabc0] Statistics: 2 seeks, 45 writeouts
[libx264 @ 0x5623b83ab3c0] frame I:6     Avg QP: 9.41  size: 84018
[libx264 @ 0x5623b83ab3c0] frame P:295   Avg QP:20.82  size: 22900
[libx264 @ 0x5623b83ab3c0] frame B:535   Avg QP:23.24  size:  5941
[libx264 @ 0x5623b83ab3c0] consecutive B-frames:  8.5% 10.8% 23.3% 57.4%
[libx264 @ 0x5623b83ab3c0] mb I  I16..4: 58.0%  7.0% 34.9%
[libx264 @ 0x5623b83ab3c0] mb P  I16..4:  3.0%  4.7%  2.8%  P16..4: 14.7%  8.2%  7.9%  0.0%  0.0%    skip:58.7%
[libx264 @ 0x5623b83ab3c0] mb B  I16..4:  0.8%  1.2%  0.6%  B16..8:  8.9%  5.3%  1.5%  direct: 5.3%  skip:76.3%  L0:36.1% L1:37.5% BI:26.4%
[libx264 @ 0x5623b83ab3c0] 8x8 transform intra:40.2% inter:23.4%
[libx264 @ 0x5623b83ab3c0] coded y,uvDC,uvAC intra: 51.1% 50.0% 22.3% inter: 11.5% 6.3% 0.3%
[libx264 @ 0x5623b83ab3c0] i16 v,h,dc,p: 62% 23%  9%  5%
[libx264 @ 0x5623b83ab3c0] i8 v,h,dc,ddl,ddr,vr,hd,vl,hu: 30% 33% 21%  3%  3%  2%  3%  2%  3%
[libx264 @ 0x5623b83ab3c0] i4 v,h,dc,ddl,ddr,vr,hd,vl,hu: 22% 25% 14%  5%  6%  5%  8%  5%  8%
[libx264 @ 0x5623b83ab3c0] i8c dc,h,v,p: 56% 22% 18%  5%
[libx264 @ 0x5623b83ab3c0] Weighted P-Frames: Y:1.7% UV:0.0%
[libx264 @ 0x5623b83ab3c0] kb/s:2996.53
[aac @ 0x5623b83cec00] Qavg: 416.988
[AVIOContext @ 0x5623b8360240] Statistics: 64029917 bytes read, 1629 seeks
[AVIOContext @ 0x5623b83fb7c0] Statistics: 93903 bytes read, 0 seeks
